<svg width="73" height="73" viewBox="0 0 73 73" fill="none" xmlns="http://www.w3.org/2000/svg">
<path d="M36.0119 0C16.1333 0 0 16.1333 0 36.0119C0 55.8905 16.1333 72.0238 36.0119 72.0238C55.8905 72.0238 72.0238 55.8905 72.0238 36.0119C72.0238 16.1333 55.8905 0 36.0119 0ZM48.6161 38.7128L29.9259 38.7128L36.1199 44.9068C37.1643 45.9512 37.1643 47.6798 36.1199 48.7241C35.5798 49.2643 34.8955 49.5164 34.2113 49.5164C33.5271 49.5164 32.8429 49.2643 32.3027 48.7241L21.4991 37.9205C20.4548 36.8762 20.4548 35.1476 21.4991 34.1033L32.3027 23.2997C33.347 22.2554 35.0756 22.2554 36.1199 23.2997C37.1643 24.344 37.1643 26.0726 36.1199 27.117L29.9259 33.311L48.6161 33.311C50.0926 33.311 51.317 34.5354 51.317 36.0119C51.317 37.4884 50.0926 38.7128 48.6161 38.7128Z" fill="#EDEDED" stroke="white" stroke-width="0.000864286"/>
</svg>
