<svg width="121" height="121" viewBox="0 0 121 121" fill="none" xmlns="http://www.w3.org/2000/svg">
<path d="M96.5117 60.5002C96.5117 40.6216 80.3784 24.4883 60.4998 24.4883C40.6212 24.4883 24.4879 40.6216 24.4879 60.5002C24.4879 80.3788 40.6212 96.5121 60.4998 96.5121C80.3784 96.5121 96.5117 80.3788 96.5117 60.5002ZM57.7989 73.1043V54.4142L51.6049 60.6082C50.5605 61.6526 48.832 61.6526 47.7876 60.6082C47.2474 60.068 46.9954 59.3838 46.9954 58.6996C46.9954 58.0154 47.2474 57.3311 47.7876 56.791L58.5912 45.9874C59.6355 44.943 61.3641 44.943 62.4084 45.9874L73.212 56.791C74.2564 57.8353 74.2564 59.5639 73.212 60.6082C72.1677 61.6526 70.4391 61.6526 69.3948 60.6082L63.2007 54.4142V73.1043C63.2007 74.5808 61.9763 75.8052 60.4998 75.8052C59.0233 75.8052 57.7989 74.5808 57.7989 73.1043Z" fill="#EDEDED" stroke="white" stroke-width="0.000864286"/>
</svg>
